<?xml version="1.0" standalone="no"?>
<!DOCTYPE svg PUBLIC "-//W3C//DTD SVG 20010904//EN"
 "http://www.w3.org/TR/2001/REC-SVG-20010904/DTD/svg10.dtd">
<svg version="1.0" xmlns="http://www.w3.org/2000/svg"
 width="1058.000000pt" height="1066.000000pt" viewBox="0 0 1058.000000 1066.000000"
 preserveAspectRatio="xMidYMid meet">

<g transform="translate(0.000000,1066.000000) scale(0.100000,-0.100000)"
fill="#000000" stroke="none">
<path d="M6410 10009 c-25 -4 -85 -13 -135 -19 -49 -6 -103 -16 -120 -22 -16
-5 -47 -13 -67 -18 -21 -4 -43 -12 -50 -17 -7 -6 -27 -14 -45 -17 -17 -4 -37
-14 -44 -22 -6 -8 -20 -14 -30 -14 -10 0 -21 -5 -24 -10 -3 -6 -23 -18 -43
-28 -61 -30 -82 -45 -136 -94 -28 -27 -56 -48 -62 -48 -6 0 -24 -15 -40 -33
-16 -18 -36 -37 -45 -43 -8 -5 -28 -27 -45 -49 -40 -56 -41 -57 -69 -88 -14
-15 -46 -60 -71 -100 -25 -40 -54 -83 -63 -97 -23 -32 -91 -173 -91 -187 0 -5
-9 -20 -20 -33 -11 -13 -20 -33 -20 -45 0 -13 -7 -28 -15 -35 -8 -7 -15 -18
-15 -25 0 -7 -9 -24 -20 -38 -11 -14 -20 -32 -20 -40 0 -8 -9 -35 -20 -60 -18
-40 -20 -63 -18 -163 2 -83 7 -119 16 -122 7 -2 15 9 18 27 4 17 10 31 15 31
4 0 19 24 34 53 61 123 130 237 148 245 4 2 7 9 7 16 0 7 9 21 20 31 11 10 20
24 20 31 0 7 30 48 66 91 36 43 71 92 79 108 7 17 40 57 72 90 32 34 66 73 76
88 9 15 24 27 32 27 9 0 23 13 33 29 39 64 277 230 330 231 9 0 26 7 36 15 11
8 32 15 47 15 14 0 44 7 65 16 26 11 82 18 172 21 132 5 134 5 172 -22 21 -14
41 -36 44 -48 9 -35 -5 -160 -20 -178 -8 -8 -19 -30 -25 -47 -6 -18 -14 -32
-19 -32 -11 0 -80 -65 -80 -76 0 -15 -168 -174 -184 -174 -8 0 -21 -6 -28 -13
-7 -6 -40 -23 -73 -36 -33 -13 -82 -33 -108 -45 l-49 -21 6 -45 c6 -43 16 -70
56 -150 10 -19 21 -49 24 -67 4 -17 14 -37 22 -44 8 -6 14 -22 14 -35 0 -24
23 -33 35 -14 3 6 14 10 24 10 9 0 27 9 39 20 12 11 27 20 35 20 8 0 26 9 40
20 14 11 30 20 35 20 15 0 110 63 155 102 22 18 46 37 55 42 20 11 161 158
162 168 0 5 27 35 60 69 33 33 60 69 60 79 0 10 7 25 15 34 8 8 15 22 15 32 0
10 7 26 16 35 9 10 20 35 25 56 4 21 15 63 24 93 19 65 15 172 -9 219 -9 16
-16 42 -16 56 0 29 -55 112 -113 169 -45 45 -90 72 -144 85 -21 6 -56 15 -78
20 -45 12 -80 12 -145 0z"/>
<path d="M8470 8420 c-153 -3 -263 -10 -275 -16 -11 -6 -56 -14 -100 -17 -44
-4 -102 -13 -130 -21 -29 -9 -90 -16 -145 -16 -52 0 -124 -7 -160 -15 -36 -8
-126 -18 -200 -21 -74 -4 -140 -11 -146 -15 -6 -5 -22 -9 -35 -9 -61 0 -201
-19 -212 -28 -7 -6 -62 -16 -122 -22 -60 -5 -113 -14 -119 -20 -5 -5 -26 -10
-47 -10 -21 0 -47 -8 -62 -20 -18 -14 -41 -20 -79 -20 -29 0 -61 -7 -71 -15
-11 -7 -36 -17 -58 -20 -21 -4 -41 -11 -45 -16 -3 -5 -22 -9 -43 -9 -41 0 -72
-22 -50 -36 23 -14 146 -3 185 17 30 15 59 19 131 19 50 0 95 -4 98 -10 3 -5
-16 -32 -42 -58 -47 -48 -49 -49 -78 -36 -66 29 -85 16 -85 -60 0 -23 -9 -59
-20 -81 -11 -22 -20 -44 -20 -50 0 -6 -21 -32 -47 -58 -34 -34 -54 -47 -76
-47 -16 0 -40 -9 -54 -20 -14 -11 -29 -17 -34 -14 -9 5 -69 -26 -69 -36 0 -4
-13 -21 -29 -39 -21 -24 -35 -31 -49 -27 -26 9 -63 -6 -98 -39 -16 -15 -43
-33 -61 -40 -18 -8 -37 -25 -42 -38 -11 -27 -29 -37 -72 -37 -29 0 -129 -37
-139 -51 -3 -4 -36 -10 -75 -14 -38 -3 -77 -13 -85 -20 -13 -11 -19 -10 -39 6
-33 27 -45 24 -79 -17 -18 -21 -40 -37 -56 -38 -37 -4 -84 -52 -97 -98 -11
-42 -26 -47 -64 -22 -19 12 -37 15 -70 10 -25 -4 -45 -11 -45 -16 0 -5 -14
-13 -32 -18 -24 -6 -38 -19 -55 -52 -13 -25 -37 -57 -53 -72 -45 -41 -42 -92
7 -142 20 -20 46 -39 57 -42 12 -2 165 -3 341 -2 l320 3 3 26 c3 26 1 26 -67
33 -38 4 -85 12 -103 17 -18 6 -67 14 -108 19 -41 5 -88 11 -105 15 -108 22
-135 30 -135 40 0 14 36 47 70 63 14 7 43 23 65 37 22 13 47 24 56 25 9 0 28
9 42 20 14 11 34 20 45 20 11 0 25 6 31 14 7 8 25 18 41 21 16 3 34 13 41 21
6 8 22 14 36 14 13 0 26 7 29 15 4 8 12 15 19 15 7 0 24 9 38 20 14 11 32 20
40 20 7 0 24 9 37 20 13 11 35 20 50 20 15 0 33 7 40 15 7 8 18 15 25 15 6 0
22 9 35 20 13 11 34 20 48 20 24 0 81 22 144 56 14 8 37 14 50 14 12 0 34 9
48 20 14 11 31 20 38 20 7 0 20 7 28 15 9 8 34 15 57 15 46 1 67 13 86 48 6
12 21 22 31 22 11 0 37 9 57 20 21 11 47 20 58 20 11 0 29 6 40 14 11 7 47 16
79 19 32 3 64 11 69 16 6 6 20 11 32 11 11 0 37 9 58 20 20 11 49 20 63 20 14
0 37 9 51 20 14 11 38 20 53 20 15 0 33 7 40 15 7 8 27 15 44 15 17 1 49 9 71
20 22 11 44 19 48 20 5 0 23 6 40 14 18 8 50 19 72 24 22 6 60 16 85 23 25 6
63 20 86 30 23 11 50 19 60 19 10 0 28 7 38 15 11 8 31 15 46 15 14 0 34 6 45
14 11 7 36 17 55 21 19 4 45 13 57 21 12 8 33 14 45 14 13 0 37 8 53 19 17 10
44 21 60 24 33 6 103 30 152 52 17 8 42 15 55 15 13 0 33 6 44 14 11 8 42 17
69 21 28 4 59 14 70 21 11 8 29 14 40 14 11 0 33 7 48 15 15 8 43 17 62 21 19
3 35 10 35 15 0 4 17 11 38 15 20 4 44 13 53 20 8 8 38 17 65 20 27 4 55 12
63 18 8 6 26 16 40 22 l26 12 -28 11 c-16 6 -47 10 -70 9 -23 -1 -157 -4 -297
-8z"/>
<path d="M5446 7861 c-3 -5 -20 -11 -38 -14 -33 -5 -104 -28 -165 -54 -17 -7
-44 -13 -61 -13 -16 0 -35 -7 -42 -15 -7 -8 -28 -18 -49 -21 -20 -4 -59 -20
-88 -36 -43 -24 -65 -30 -140 -33 -48 -2 -93 -4 -98 -4 -6 -1 -24 -13 -41 -28
-42 -38 -90 -61 -146 -72 -26 -4 -53 -13 -60 -18 -7 -6 -26 -13 -41 -17 -16
-4 -50 -22 -77 -41 -28 -19 -56 -35 -63 -35 -8 0 -24 -9 -37 -20 -13 -11 -31
-20 -40 -20 -10 0 -23 -7 -30 -15 -8 -10 -31 -15 -69 -15 -51 -1 -59 -4 -91
-36 -19 -19 -45 -37 -57 -40 -17 -5 -24 -16 -28 -43 -12 -71 -15 -80 -38 -87
-12 -4 -38 -6 -58 -5 -31 2 -37 -1 -42 -21 -12 -46 22 -140 63 -173 13 -11 31
-28 39 -37 9 -10 24 -18 34 -18 10 0 25 -7 33 -15 8 -8 31 -17 52 -21 48 -9
86 -38 92 -72 4 -19 13 -28 35 -33 45 -9 105 -49 105 -68 0 -10 9 -26 20 -36
11 -10 22 -25 25 -34 3 -9 18 -25 35 -34 16 -10 30 -24 30 -31 0 -8 6 -19 14
-25 8 -7 18 -27 22 -44 3 -17 17 -48 30 -69 14 -22 28 -67 35 -110 6 -40 17
-77 24 -83 7 -5 15 -26 18 -46 3 -22 17 -48 36 -67 20 -20 31 -40 31 -59 0
-16 8 -40 18 -53 12 -19 18 -52 22 -130 l5 -105 75 3 c41 2 77 6 80 10 10 14
117 92 125 92 13 0 83 50 121 85 44 41 62 55 70 55 16 0 112 50 124 65 7 8 23
15 36 15 12 0 26 5 29 10 3 6 14 10 24 10 22 0 116 47 131 66 7 8 30 17 51 20
21 4 44 13 50 20 6 8 22 14 35 14 12 0 29 7 38 15 8 8 20 15 26 15 10 0 103
39 142 61 10 5 26 9 36 9 10 0 35 9 57 20 22 11 51 20 65 20 14 0 39 9 55 20
17 11 40 20 52 20 12 0 26 6 30 13 10 17 94 48 132 49 24 1 30 6 35 31 3 16 6
40 6 53 0 19 7 24 38 29 106 17 177 61 170 107 -4 32 -70 39 -102 9 -14 -13
-32 -19 -54 -17 -39 3 -49 -7 -60 -60 -7 -37 -10 -39 -47 -42 -28 -3 -43 1
-51 13 -12 16 -14 16 -38 -2 -14 -10 -28 -26 -31 -35 -9 -27 -59 -23 -78 5
-13 20 -21 22 -82 19 -49 -2 -74 -8 -93 -22 -20 -16 -40 -20 -111 -20 -61 0
-93 -4 -107 -15 -10 -8 -26 -15 -34 -15 -9 0 -23 -9 -33 -20 -15 -18 -29 -20
-127 -20 -89 0 -112 -3 -116 -15 -4 -8 -24 -18 -45 -21 -21 -4 -39 -10 -39
-14 0 -15 -51 -18 -57 -3 -8 19 36 63 63 63 12 0 27 7 34 15 7 8 22 15 34 15
11 0 32 12 45 26 30 31 63 92 57 103 -3 4 -52 11 -110 14 -101 6 -128 13 -171
48 -31 25 -91 30 -136 12 -43 -17 -91 -12 -127 13 -16 11 -22 25 -22 53 0 20
-5 42 -12 49 -9 9 -9 17 -1 34 6 13 14 47 17 76 5 50 4 54 -23 70 -26 14 -28
20 -27 71 l1 55 -50 14 c-45 13 -48 15 -30 28 10 8 26 14 35 14 8 0 23 9 33
20 9 11 25 20 36 20 10 0 24 6 30 14 6 7 29 16 51 20 32 5 41 11 46 31 8 33
-20 65 -56 65 -15 0 -34 7 -41 16 -7 9 -25 21 -39 26 -24 10 -24 11 -6 22 11
6 28 19 38 29 10 9 28 17 41 17 27 0 67 40 67 68 0 26 23 44 52 40 21 -3 23
-9 26 -70 3 -67 3 -68 30 -68 17 1 40 13 62 36 l35 35 18 -26 c22 -29 76 -35
97 -10 15 18 45 11 77 -17 47 -43 87 11 42 58 -15 16 -34 24 -54 24 -19 0 -43
10 -59 24 -25 20 -27 26 -16 45 6 13 9 30 5 38 -6 17 40 73 60 73 6 0 34 16
64 35 29 19 59 35 66 35 23 0 29 22 10 37 -22 15 -32 16 -39 4z m-310 -219
c-8 -24 -35 -37 -49 -23 -7 7 -1 14 16 20 15 6 27 16 27 22 0 7 3 10 6 6 3 -3
3 -14 0 -25z m-326 -221 c0 -5 -7 -14 -15 -21 -18 -15 -42 1 -31 19 8 13 46
15 46 2z"/>
<path d="M6265 5800 c-9 -14 -109 -40 -157 -40 -23 0 -71 -7 -104 -15 -34 -8
-111 -17 -170 -21 -92 -6 -117 -11 -159 -34 -38 -21 -70 -29 -133 -34 -46 -4
-93 -13 -105 -20 -12 -8 -46 -17 -76 -21 -30 -4 -69 -14 -87 -21 -18 -8 -53
-14 -76 -14 -26 0 -55 -8 -73 -20 -16 -11 -37 -20 -46 -20 -9 0 -24 -9 -34
-20 -10 -11 -28 -20 -40 -20 -51 0 -86 -13 -99 -37 -14 -28 -99 -63 -151 -63
-17 0 -40 -7 -51 -15 -10 -8 -28 -15 -39 -15 -11 0 -36 -8 -55 -18 -19 -11
-47 -22 -62 -26 -16 -3 -28 -11 -28 -16 0 -6 -6 -10 -14 -10 -7 0 -24 -8 -37
-19 -13 -10 -39 -22 -56 -25 -18 -4 -33 -12 -33 -17 0 -5 -11 -11 -25 -15 -13
-3 -48 -19 -77 -35 -29 -15 -66 -35 -83 -42 -16 -8 -43 -25 -60 -39 -20 -17
-48 -27 -83 -31 -29 -3 -59 -13 -68 -22 -8 -8 -21 -15 -28 -15 -8 0 -19 -7
-26 -15 -7 -8 -20 -15 -29 -15 -9 0 -22 -9 -29 -20 -7 -11 -21 -20 -31 -20
-11 0 -23 -5 -27 -11 -3 -6 -21 -18 -38 -26 -62 -28 -139 -71 -145 -80 -8 -13
-94 -53 -112 -53 -9 0 -25 -14 -38 -30 -12 -17 -46 -41 -74 -54 -29 -13 -61
-33 -71 -45 -11 -11 -26 -21 -35 -21 -9 0 -29 -14 -46 -31 -16 -17 -43 -37
-60 -44 -16 -7 -50 -31 -75 -53 -25 -22 -56 -43 -70 -46 -14 -3 -35 -20 -47
-38 -13 -19 -48 -50 -79 -68 -31 -19 -64 -43 -73 -52 -8 -10 -19 -18 -24 -18
-4 0 -38 -24 -75 -53 -37 -29 -74 -57 -82 -61 -53 -25 -115 -84 -165 -156 -15
-22 -37 -42 -48 -46 -12 -4 -75 -62 -142 -129 -66 -67 -128 -125 -139 -129
-11 -4 -16 -12 -12 -22 3 -9 6 -20 6 -25 0 -5 8 -9 19 -9 10 0 30 -9 44 -20
14 -11 32 -20 41 -20 9 0 25 -9 36 -20 11 -11 29 -20 40 -20 11 0 23 -7 26
-15 4 -8 14 -15 24 -15 10 0 25 -6 32 -13 7 -7 69 -41 138 -75 136 -69 152
-77 192 -104 15 -10 36 -18 48 -18 11 0 25 -9 32 -20 7 -11 23 -20 35 -20 12
0 25 -5 29 -11 3 -6 21 -18 38 -26 51 -24 78 -40 86 -53 6 -10 14 -8 34 6 14
11 26 22 26 26 0 4 10 18 23 30 36 38 77 91 77 101 0 5 17 25 38 46 20 20 46
55 57 76 11 21 44 62 73 91 28 29 52 59 52 67 0 7 25 38 55 68 30 29 60 60 67
68 92 97 152 151 168 151 10 0 23 6 27 13 12 20 99 87 112 87 6 0 54 43 106
95 52 52 107 102 122 112 16 9 46 32 69 50 23 18 50 33 62 33 11 0 23 8 26 18
3 9 22 31 42 47 20 17 47 40 61 53 13 12 34 22 46 22 13 0 29 9 37 20 8 11 20
20 28 20 12 0 62 32 90 58 7 6 18 12 24 12 6 0 19 6 27 14 26 23 170 96 190
96 10 0 24 7 31 15 7 9 29 15 51 15 21 0 42 6 46 13 4 8 28 24 52 38 24 13 60
39 79 57 20 17 46 33 59 33 36 2 37 2 78 35 22 17 50 34 62 38 11 4 27 13 33
21 7 8 23 15 35 15 12 0 28 7 35 15 7 8 19 15 28 15 20 0 105 49 115 67 5 8
28 13 66 13 53 0 61 3 92 35 28 29 41 35 75 35 24 0 47 -6 54 -15 10 -12 16
-10 43 15 18 16 44 32 59 35 14 4 32 13 39 21 6 8 28 14 49 14 21 0 43 6 50
14 6 8 24 16 38 18 25 3 27 6 27 53 l0 49 -45 4 c-25 2 -49 7 -53 12 -14 13
12 50 34 50 11 0 29 4 39 10 18 9 18 11 -4 52 -22 41 -25 43 -74 46 -35 2 -59
-2 -74 -12 -24 -17 -75 -21 -95 -8 -8 5 -2 16 20 34 29 22 45 26 119 29 64 3
91 8 105 22 22 19 74 23 105 6 30 -16 67 -3 74 26 10 41 41 55 121 55 39 0 74
4 77 9 7 11 -13 72 -28 87 -14 15 -114 26 -121 14z m-515 -311 c0 -5 -4 -9
-10 -9 -5 0 -10 7 -10 16 0 8 5 12 10 9 6 -3 10 -10 10 -16z"/>
<path d="M6865 5710 c-15 -25 6 -48 50 -52 24 -3 51 -13 60 -22 9 -9 24 -16
33 -16 10 0 34 -9 55 -20 20 -11 46 -20 56 -20 11 0 23 -5 26 -11 4 -5 18 -14
31 -20 14 -5 30 -22 35 -38 7 -20 19 -30 39 -35 31 -6 66 -48 55 -66 -10 -16
-141 -12 -183 6 -58 24 -162 30 -218 11 -27 -9 -65 -19 -85 -22 -21 -3 -49
-15 -64 -26 -31 -25 -94 -22 -125 6 -13 12 -32 15 -71 13 -51 -3 -54 -5 -59
-32 -3 -17 -8 -30 -11 -30 -3 -1 -18 14 -33 32 -54 63 -94 36 -98 -68 -2 -43
2 -53 28 -79 17 -16 42 -33 57 -36 15 -4 27 -11 27 -16 0 -5 14 -9 30 -9 28 0
56 -19 76 -51 5 -8 30 -25 57 -39 26 -13 47 -28 47 -33 0 -4 15 -14 33 -22 17
-7 41 -24 53 -37 26 -29 94 -142 94 -156 0 -6 8 -16 18 -21 15 -8 58 -87 107
-195 9 -21 19 -57 22 -79 7 -62 18 -70 83 -63 114 13 166 24 202 40 21 9 51
16 67 16 16 0 31 5 33 12 2 6 35 15 72 19 38 5 75 14 84 21 11 10 100 14 351
18 l336 5 3 47 c2 29 -2 50 -10 57 -7 6 -40 33 -74 60 -66 53 -124 120 -124
143 0 9 -12 28 -26 43 -15 16 -32 41 -38 55 -13 31 -176 220 -189 220 -6 0
-19 10 -31 23 -71 74 -176 155 -251 191 -16 8 -47 30 -68 49 -21 19 -68 49
-105 68 -37 19 -71 40 -75 47 -4 6 -17 12 -27 12 -11 0 -29 9 -40 20 -11 11
-29 20 -39 20 -11 0 -47 16 -80 35 -51 30 -68 35 -125 35 -35 0 -68 -5 -71
-10z"/>
<path d="M3620 3080 c-30 -4 -73 -10 -95 -13 -22 -3 -80 -8 -130 -12 -87 -5
-197 -18 -450 -51 -171 -22 -231 -58 -210 -125 8 -24 36 -24 169 -4 133 20
140 11 88 -95 -28 -57 -34 -66 -107 -175 -33 -49 -73 -112 -89 -140 -15 -27
-30 -52 -32 -54 -2 -2 -48 -8 -101 -12 -117 -10 -137 -14 -157 -35 -20 -19
-21 -73 -2 -80 17 -7 62 -12 104 -13 63 -2 54 -50 -31 -178 -29 -43 -65 -95
-80 -115 -24 -31 -26 -39 -16 -61 13 -28 56 -41 106 -31 51 10 95 61 166 194
16 30 45 79 63 108 l34 52 72 0 c45 0 77 -5 87 -13 20 -17 139 -57 172 -57 34
-1 167 -42 214 -67 73 -38 95 -68 95 -129 0 -45 -5 -59 -29 -86 -65 -73 -246
-130 -516 -162 -155 -18 -356 -21 -401 -6 -16 5 -85 13 -154 18 -104 7 -135
13 -182 35 -39 19 -73 27 -109 27 -45 0 -58 -5 -94 -35 -35 -29 -44 -42 -47
-76 -2 -22 0 -43 4 -45 4 -3 47 -7 95 -10 49 -2 113 -10 143 -16 67 -14 413
-13 525 1 44 6 125 15 180 22 55 6 105 14 110 19 6 4 42 10 81 14 39 3 88 13
107 21 20 8 47 15 60 15 12 0 40 9 62 20 22 11 46 20 55 20 9 0 44 13 78 30
33 16 72 32 86 36 14 3 30 12 37 20 6 8 17 14 23 14 25 0 83 76 100 131 16 53
16 59 -1 97 -13 31 -31 49 -77 76 -33 20 -67 36 -76 36 -8 0 -28 8 -45 18 -59
36 -178 64 -425 101 -25 4 -54 13 -65 19 -11 7 -33 17 -49 22 -27 10 -28 13
-24 54 3 26 21 70 47 112 40 66 129 196 150 221 6 7 16 24 23 38 6 14 14 25
18 25 16 0 18 56 3 78 -8 13 -12 26 -10 29 19 19 524 63 720 63 141 0 184 11
212 54 10 15 14 33 10 46 -6 19 -13 20 -223 19 -119 -1 -242 -5 -272 -9z"/>
<path d="M6895 2899 c-22 -4 -112 -13 -200 -18 -88 -6 -196 -16 -240 -22 -44
-5 -166 -13 -272 -17 -184 -7 -193 -8 -217 -31 -20 -19 -26 -34 -26 -66 0 -22
5 -46 11 -52 15 -15 -22 -84 -53 -101 -12 -7 -31 -30 -41 -50 -9 -20 -51 -73
-92 -117 -41 -44 -75 -83 -75 -87 0 -4 -15 -23 -32 -41 -39 -41 -78 -93 -78
-105 0 -4 -22 -32 -50 -62 -27 -30 -50 -57 -50 -61 0 -3 -9 -14 -20 -24 -11
-10 -20 -23 -20 -28 0 -6 -8 -20 -19 -31 -58 -65 -76 -250 -34 -337 30 -60 63
-74 215 -94 114 -15 134 -15 263 0 145 18 271 44 340 71 140 56 195 95 195
139 0 14 -7 28 -16 32 -18 7 -102 -12 -149 -33 -134 -59 -256 -86 -423 -91
-116 -4 -147 -2 -160 10 -10 8 -27 18 -40 22 -12 3 -34 17 -47 29 -22 21 -25
32 -25 93 0 45 5 74 13 80 6 6 34 13 61 17 27 3 54 10 60 15 6 5 31 12 56 16
25 4 57 14 72 21 15 8 51 14 80 14 30 0 79 9 111 20 41 15 83 20 154 20 54 0
139 5 188 10 50 4 144 13 210 20 251 22 345 48 345 94 0 13 -338 5 -415 -9
-44 -8 -128 -14 -187 -15 -58 0 -140 -6 -181 -14 -41 -8 -119 -18 -173 -22
-121 -8 -114 -7 -141 -22 -23 -13 -100 -16 -127 -6 -9 3 -16 12 -16 19 0 12
189 265 229 307 20 21 27 30 74 95 21 29 49 61 61 70 12 10 40 43 61 73 21 30
39 56 40 58 9 10 165 41 255 51 58 6 173 17 255 26 83 8 163 20 179 25 38 13
152 13 196 0 49 -14 200 -24 244 -16 45 9 76 37 76 70 0 21 -9 27 -69 45 -55
17 -93 21 -193 20 -67 -1 -141 -5 -163 -10z"/>
<path d="M7540 2861 c0 -5 -10 -11 -23 -15 -28 -7 -104 -82 -126 -124 -23 -43
-109 -221 -128 -262 -18 -41 -40 -85 -58 -120 -8 -14 -16 -37 -19 -52 -3 -15
-12 -33 -19 -40 -6 -7 -25 -33 -42 -58 -16 -25 -32 -47 -35 -50 -3 -3 -21 -30
-40 -60 -19 -30 -41 -64 -48 -75 -7 -11 -19 -33 -27 -50 -7 -16 -37 -54 -64
-84 -28 -30 -51 -57 -51 -62 0 -4 -6 -14 -13 -21 -33 -33 -58 -89 -55 -120 3
-29 7 -33 37 -36 50 -5 74 4 117 43 22 19 44 35 51 35 7 0 27 6 45 14 122 53
322 86 531 86 l158 0 16 -29 17 -28 60 20 c34 11 65 24 70 28 32 29 118 -5
185 -75 24 -25 57 -48 72 -51 42 -9 95 24 125 78 5 8 7 40 6 71 -4 50 -7 57
-37 76 -27 16 -49 20 -128 20 -141 0 -157 28 -82 145 19 31 35 60 35 65 0 6 4
10 9 10 5 0 13 9 16 20 3 11 12 26 18 32 7 7 27 42 45 78 51 103 85 162 121
210 18 25 44 68 58 95 14 28 39 67 55 87 16 21 30 50 31 65 2 26 -1 28 -38 31
-32 2 -49 -3 -81 -26 -52 -38 -164 -204 -164 -245 0 -19 -76 -164 -111 -211
-16 -22 -29 -47 -29 -56 0 -9 -24 -52 -52 -96 -29 -44 -59 -91 -66 -104 -38
-72 -80 -93 -182 -92 -90 0 -232 -14 -279 -30 -62 -19 -279 -66 -313 -67 -29
-1 -16 70 19 107 7 7 13 17 13 22 0 5 6 15 13 22 21 24 52 71 80 128 16 30 46
82 67 115 21 33 59 101 85 150 26 50 51 95 56 101 5 6 21 33 35 60 14 27 31
54 37 59 12 10 23 31 46 89 7 17 25 46 40 65 55 71 47 121 -19 121 -22 0 -40
-4 -40 -9z"/>
<path d="M4920 2813 c-35 -29 -53 -65 -44 -87 6 -16 76 -56 97 -56 7 0 23 -9
37 -20 14 -11 30 -20 37 -20 33 0 171 -96 211 -146 l44 -54 -1 -91 c0 -70 -4
-97 -18 -118 -10 -14 -28 -45 -41 -69 -13 -24 -31 -51 -40 -61 -9 -9 -29 -31
-43 -47 -31 -35 -70 -69 -124 -109 -22 -16 -45 -34 -51 -41 -17 -21 -118 -84
-133 -84 -8 0 -22 -6 -30 -13 -27 -22 -187 -80 -269 -96 -69 -14 -273 -14
-365 0 -68 11 -137 37 -163 63 -47 47 -56 132 -22 197 25 49 181 209 203 209
8 0 15 4 15 9 0 5 9 12 20 16 11 3 42 24 70 46 27 21 53 39 57 39 19 0 183 83
183 92 0 5 6 8 13 8 6 0 44 16 82 35 39 19 75 35 80 35 6 0 27 9 48 20 20 11
43 20 51 20 21 0 88 79 82 97 -3 8 -6 17 -6 19 0 9 -77 3 -110 -9 -19 -7 -60
-27 -91 -45 -31 -17 -62 -32 -69 -32 -17 0 -67 -22 -192 -86 -60 -30 -113 -54
-118 -54 -11 0 -51 -25 -128 -80 -23 -16 -46 -30 -49 -30 -4 0 -14 -6 -22 -14
-9 -8 -36 -25 -61 -39 -91 -49 -110 -62 -117 -84 -5 -12 -35 -50 -69 -85 -92
-96 -104 -121 -104 -215 0 -79 0 -79 39 -119 71 -71 156 -100 349 -119 111
-11 156 -11 267 0 73 7 141 17 151 23 11 5 62 19 114 32 52 12 112 31 132 41
21 11 41 19 46 19 5 0 31 12 57 28 26 15 74 42 107 59 32 18 65 38 72 45 7 7
34 29 61 48 27 19 75 62 108 95 32 33 78 80 102 105 25 25 63 81 86 125 40 77
41 83 43 180 1 100 1 101 -33 143 -43 55 -120 132 -132 132 -5 0 -9 4 -9 9 0
7 -114 91 -124 91 -3 0 -28 16 -57 35 -49 32 -60 35 -126 35 -63 0 -75 -3
-103 -27z"/>
</g>
</svg>
